HIERARCHY
ROOT joint_Root
{
	OFFSET 0.0 0.0 0.0
	CHANNELS 6 Xposition Yposition Zposition Zrotation Xrotation Yrotation 
	JOINT Hips
	{
		OFFSET 4.5925 91.4895 -427.239
		CHANNELS 6 Xposition Yposition Zposition Zrotation Xrotation Yrotation 
		JOINT Spine
		{
			OFFSET 15.7357 0.0 0.0
			CHANNELS 6 Xposition Yposition Zposition Zrotation Xrotation Yrotation 
			JOINT Chest
			{
				OFFSET 8.98455 -0.406207 0.0
				CHANNELS 6 Xposition Yposition Zposition Zrotation Xrotation Yrotation 
				JOINT Neck
				{
					OFFSET 16.3773 0.0 0.0
					CHANNELS 6 Xposition Yposition Zposition Zrotation Xrotation Yrotation 
					JOINT Head
					{
						OFFSET 6.45672 0.0 0.0
						CHANNELS 6 Xposition Yposition Zposition Zrotation Xrotation Yrotation 
						End Site
						{
							OFFSET 0.0 0.0 0.0
						}
					}
				}
				JOINT Shoulder_L
				{
					OFFSET 12.9942 -0.242716 4.98039
					CHANNELS 6 Xposition Yposition Zposition Zrotation Xrotation Yrotation 
					JOINT UpperArm_L
					{
						OFFSET 5.34809 0.0 0.0
						CHANNELS 6 Xposition Yposition Zposition Zrotation Xrotation Yrotation 
						JOINT LowerArm_L
						{
							OFFSET 24.3286 1.87007e-05 0.0
							CHANNELS 6 Xposition Yposition Zposition Zrotation Xrotation Yrotation 
							JOINT Hand_L
							{
								OFFSET 22.2916 0.0 0.0
								CHANNELS 6 Xposition Yposition Zposition Zrotation Xrotation Yrotation 
								End Site
								{
									OFFSET 0.0 0.0 0.0
								}
							}
						}
					}
				}
				JOINT Shoulder_R
				{
					OFFSET 12.9945 -0.242716 -4.98039
					CHANNELS 6 Xposition Yposition Zposition Zrotation Xrotation Yrotation 
					JOINT UpperArm_R
					{
						OFFSET -5.34813 0.0 0.0
						CHANNELS 6 Xposition Yposition Zposition Zrotation Xrotation Yrotation 
						JOINT LowerArm_R
						{
							OFFSET -24.3289 0.000322201 0.0
							CHANNELS 6 Xposition Yposition Zposition Zrotation Xrotation Yrotation 
							JOINT Hand_R
							{
								OFFSET -22.2915 -0.000108084 0.0
								CHANNELS 6 Xposition Yposition Zposition Zrotation Xrotation Yrotation 
								End Site
								{
									OFFSET 0.0 0.0 0.0
								}
							}
						}
					}
				}
			}
		}
		JOINT UpperLeg_L
		{
			OFFSET -2.19248 -6.46944 0.0
			CHANNELS 6 Xposition Yposition Zposition Zrotation Xrotation Yrotation 
			JOINT LowerLeg_L
			{
				OFFSET 39.0811 0.0 -1.23785e-05
				CHANNELS 6 Xposition Yposition Zposition Zrotation Xrotation Yrotation 
				JOINT Foot_L
				{
					OFFSET 40.9854 0.0 -1.26872e-05
					CHANNELS 6 Xposition Yposition Zposition Zrotation Xrotation Yrotation 
					JOINT Toes_L
					{
						OFFSET 11.7543 0.0 0.0
						CHANNELS 6 Xposition Yposition Zposition Zrotation Xrotation Yrotation 
						End Site
						{
							OFFSET 0.0 0.0 0.0
						}
					}
				}
			}
		}
		JOINT UpperLeg_R
		{
			OFFSET -2.19251 6.46944 0.0
			CHANNELS 6 Xposition Yposition Zposition Zrotation Xrotation Yrotation 
			JOINT LowerLeg_R
			{
				OFFSET -39.0811 -0.00228153 -0.0401928
				CHANNELS 6 Xposition Yposition Zposition Zrotation Xrotation Yrotation 
				JOINT Foot_R
				{
					OFFSET -40.9854 0.0 0.0
					CHANNELS 6 Xposition Yposition Zposition Zrotation Xrotation Yrotation 
					JOINT Toes_R
					{
						OFFSET -11.7543 0.0 0.0
						CHANNELS 6 Xposition Yposition Zposition Zrotation Xrotation Yrotation 
						End Site
						{
							OFFSET 0.0 0.0 0.0
						}
					}
				}
			}
		}
	}
}
MOTION
Frames:	6
Frame Time:	0.0333333
0.000000 0.000000 0.000000 0.000000 0.000000 -0.000000 -242.317000 85.797400 195.455000 48.003100 84.336400 41.937700 15.735700 0.000005 -0.000001 82.482000 82.540700 -79.783200 8.984550 -0.406207 -0.000000 7.079420 -1.961160 5.513490 16.377300 -0.000001 -0.000001 -0.142698 2.149690 1.315010 6.456720 -0.000001 -0.000000 0.433741 4.865020 -1.332620 12.994200 -0.242716 4.980390 -90.735900 2.423690 -73.097300 5.348090 -0.000007 -0.000001 -67.021600 47.744600 12.630400 24.328600 0.000019 0.000005 9.186860 4.468020 -64.298300 22.291600 -0.000001 0.000005 7.452810 5.560000 -9.187370 12.994500 -0.242716 -4.980390 87.808600 11.197700 -78.854100 -5.348130 -0.000001 -0.000004 -50.636600 43.741700 -30.749000 -24.328900 0.000322 -0.000009 -1.085610 0.248303 -102.829000 -22.291500 -0.000108 -0.000004 25.143100 5.617560 -12.461800 -2.192480 -6.469440 -0.000000 -173.753000 -3.407420 -13.988900 39.081100 -0.000007 -0.000012 0.023500 -0.005423 76.988700 40.985400 -0.000006 -0.000013 9.119460 -6.008100 -50.627500 11.754300 -0.000000 0.000003 -0.008730 -0.093896 -20.401100 -2.192510 6.469440 -0.000001 -176.385000 8.750760 164.538000 -39.081100 -0.002282 -0.040193 -0.000964 0.003789 48.069200 -40.985400 0.000008 0.000006 6.398290 3.174450 -83.357100 -11.754300 -0.000006 -0.000006 -0.000092 -0.001529 -16.635900
0.000000 0.000000 0.000000 0.000000 0.000000 -0.000000 -239.181000 87.956900 195.307000 68.418000 83.408700 20.695600 15.735700 0.000005 -0.000001 94.786500 83.073400 -92.860500 8.984550 -0.406207 -0.000000 6.023670 1.123620 3.788610 16.377300 -0.000001 -0.000001 0.069060 1.058950 1.996570 6.456720 -0.000001 -0.000000 0.349736 2.186300 0.148571 12.994200 -0.242716 4.980390 -90.034600 0.108128 -72.203300 5.348090 -0.000007 -0.000001 -70.034500 52.153000 22.253800 24.328600 0.000019 0.000005 7.180900 2.876200 -68.280100 22.291600 -0.000001 0.000005 6.327620 5.564590 -9.424110 12.994500 -0.242716 -4.980390 88.380200 8.438600 -79.092900 -5.348130 -0.000001 -0.000004 -50.498000 42.127200 -39.229600 -24.328900 0.000322 -0.000009 -4.298830 1.563140 -109.895000 -22.291500 -0.000108 -0.000004 24.827900 5.624130 -12.910100 -2.192480 -6.469440 -0.000000 -177.061000 -3.818420 -20.082400 39.081100 -0.000007 -0.000012 -0.012167 0.002567 78.118200 40.985400 -0.000006 -0.000013 10.838100 -7.800110 -52.982200 11.754300 -0.000000 0.000003 -0.007174 -0.081158 -19.880900 -2.192510 6.469440 -0.000001 -178.561000 8.217380 169.023000 -39.081100 -0.002282 -0.040193 0.031642 -0.032837 40.821900 -40.985400 0.000008 0.000006 6.589150 5.361030 -78.645800 -11.754300 -0.000006 -0.000006 -0.604050 -0.735555 -19.125700
0.000000 0.000000 0.000000 0.000000 0.000000 -0.000000 -235.850000 90.273800 194.910000 80.627100 82.509700 8.019720 15.735700 0.000005 -0.000001 105.042000 83.107400 -103.796000 8.984550 -0.406207 -0.000000 5.517820 3.544740 2.318340 16.377300 -0.000001 -0.000001 0.118187 0.264918 2.419080 6.456720 -0.000001 -0.000000 0.273520 -0.019867 0.462978 12.994200 -0.242716 4.980390 -89.310900 -2.059990 -71.501600 5.348090 -0.000007 -0.000001 -73.436100 52.846000 30.635900 24.328600 0.000019 0.000005 7.229340 2.367910 -71.965200 22.291600 -0.000001 0.000005 4.955180 5.574680 -9.935160 12.994500 -0.242716 -4.980390 88.786800 6.455360 -79.331800 -5.348130 -0.000001 -0.000004 -50.388200 39.433400 -45.298600 -24.328900 0.000322 -0.000009 -6.749970 3.241530 -115.533000 -22.291500 -0.000108 -0.000004 24.298800 5.622410 -12.784600 -2.192480 -6.469440 -0.000000 -179.825000 -2.816560 -24.130000 39.081100 -0.000007 -0.000012 -0.022520 0.006073 74.923000 40.985400 -0.000006 -0.000013 9.877420 -6.453890 -55.899000 11.754300 -0.000000 0.000003 -0.007524 -0.084115 -20.001600 -2.192510 6.469440 -0.000001 179.022000 9.104010 173.374000 -39.081100 -0.002282 -0.040193 0.019987 -0.024806 33.938700 -40.985400 0.000008 0.000006 6.393170 8.497510 -71.009400 -11.754300 -0.000006 -0.000006 -0.192636 -0.325671 -22.952100
0.000000 0.000000 0.000000 0.000000 0.000000 -0.000000 -232.630000 92.213600 194.542000 88.746700 81.359300 -1.156330 15.735700 0.000005 -0.000001 112.395000 83.150800 -111.726000 8.984550 -0.406207 -0.000000 4.885220 5.191940 1.114750 16.377300 -0.000001 -0.000001 -0.200797 -0.073799 2.175090 6.456720 -0.000001 -0.000000 0.123840 -1.364780 0.447491 12.994200 -0.242716 4.980390 -88.610900 -3.979870 -70.742800 5.348090 -0.000007 -0.000001 -76.379100 50.655200 37.315500 24.328600 0.000019 0.000005 5.214730 1.449770 -74.511600 22.291600 -0.000001 0.000005 3.997320 5.579520 -10.184900 12.994500 -0.242716 -4.980390 89.080200 4.850280 -79.248600 -5.348130 -0.000001 -0.000004 -49.951400 37.072200 -50.091200 -24.328900 0.000322 -0.000009 -6.017630 3.395920 -119.336000 -22.291500 -0.000108 -0.000004 23.069700 5.601980 -11.449500 -2.192480 -6.469440 -0.000000 178.489000 -2.117780 -27.479300 39.081100 -0.000007 -0.000012 -0.004501 0.001781 68.477300 40.985400 -0.000006 -0.000013 7.529610 -3.643840 -58.964300 11.754300 -0.000000 0.000003 -0.006706 -0.077132 -19.716500 -2.192510 6.469440 -0.000001 176.697000 11.055400 176.264000 -39.081100 -0.002282 -0.040193 0.019200 -0.029170 28.587200 -40.985400 0.000008 0.000006 6.416470 12.446800 -64.664500 -11.754300 -0.000006 -0.000006 -0.038922 -0.255786 -27.077200
0.000000 0.000000 0.000000 0.000000 0.000000 -0.000000 -229.473000 93.433100 194.302000 92.063900 80.831300 -5.375560 15.735700 0.000005 -0.000001 115.941000 83.179400 -115.659000 8.984550 -0.406207 -0.000000 4.505910 5.948910 0.329983 16.377300 -0.000001 -0.000001 -0.603938 -0.249809 1.977550 6.456720 -0.000001 -0.000000 -0.403629 -2.175950 0.322814 12.994200 -0.242716 4.980390 -87.825900 -6.027350 -70.124200 5.348090 -0.000007 -0.000001 -78.153000 46.505100 41.171100 24.328600 0.000019 0.000005 4.444310 1.094340 -76.193300 22.291600 -0.000001 0.000005 3.389250 5.570630 -9.719610 12.994500 -0.242716 -4.980390 89.369600 3.285210 -79.131500 -5.348130 -0.000001 -0.000004 -50.061000 35.515600 -53.100000 -24.328900 0.000322 -0.000009 -5.478580 3.352770 -121.373000 -22.291500 -0.000108 -0.000004 22.330000 5.585920 -10.534600 -2.192480 -6.469440 -0.000000 178.017000 -1.864150 -29.478200 39.081100 -0.000007 -0.000012 0.010802 -0.006367 59.464900 40.985400 -0.000006 -0.000013 6.253330 -1.504760 -61.131500 11.754300 -0.000000 0.000003 -0.006561 -0.075860 -19.664600 -2.192510 6.469440 -0.000001 174.899000 13.304300 178.898000 -39.081100 -0.002282 -0.040193 0.019787 -0.036325 24.395500 -40.985400 0.000008 0.000006 6.034620 16.220000 -59.697100 -11.754300 -0.000006 -0.000006 -0.059151 -0.329005 -30.157100
0.000000 0.000000 0.000000 0.000000 0.000000 -0.000000 -226.396000 93.769800 194.244000 91.606400 81.008600 -5.763040 15.735700 0.000005 -0.000001 117.424000 83.333200 -117.307000 8.984550 -0.406207 -0.000000 4.082200 6.128000 0.014778 16.377300 -0.000001 -0.000001 -0.903742 -0.499860 1.786590 6.456720 -0.000001 -0.000000 -0.942021 -2.783170 0.381862 12.994200 -0.242716 4.980390 -87.046100 -8.057140 -69.788500 5.348090 -0.000007 -0.000001 -78.932300 41.938800 42.657900 24.328600 0.000019 0.000005 5.076000 1.165700 -77.099300 22.291600 -0.000001 0.000005 3.062500 5.565610 -9.467460 12.994500 -0.242716 -4.980390 89.595600 2.112760 -79.162200 -5.348130 -0.000001 -0.000004 -50.240300 35.088600 -53.825500 -24.328900 0.000322 -0.000009 -5.900670 3.733740 -122.215000 -22.291500 -0.000108 -0.000004 22.772500 5.579320 -10.177000 -2.192480 -6.469440 -0.000000 178.529000 -2.389380 -30.598400 39.081100 -0.000007 -0.000012 0.016322 -0.014335 48.703400 40.985400 -0.000006 -0.000013 4.949680 -0.324012 -62.600000 11.754300 -0.000000 0.000003 -0.006747 -0.077482 -19.730800 -2.192510 6.469440 -0.000001 173.783000 15.901000 -178.795000 -39.081100 -0.002282 -0.040193 0.021399 -0.045164 21.818500 -40.985400 0.000008 0.000006 6.082960 19.347500 -57.260500 -11.754300 -0.000006 -0.000006 -0.074960 -0.377603 -32.229000
